<svg xmlns="http://www.w3.org/2000/svg" viewBox="0 0 400 400">
  <defs>
    <linearGradient id="gradient1" x1="0%" y1="0%" x2="100%" y2="100%">
      <stop offset="0%" stop-color="#6c5ce7" />
      <stop offset="100%" stop-color="#00cec9" />
    </linearGradient>
    <linearGradient id="gradient2" x1="0%" y1="0%" x2="100%" y2="100%">
      <stop offset="0%" stop-color="#fd79a8" />
      <stop offset="100%" stop-color="#e84393" />
    </linearGradient>
    <linearGradient id="gradient3" x1="0%" y1="0%" x2="100%" y2="100%">
      <stop offset="0%" stop-color="#fdcb6e" />
      <stop offset="100%" stop-color="#e17055" />
    </linearGradient>
    <linearGradient id="gradient4" x1="0%" y1="0%" x2="100%" y2="100%">
      <stop offset="0%" stop-color="#00b894" />
      <stop offset="100%" stop-color="#00cec9" />
    </linearGradient>
    <linearGradient id="gradient5" x1="0%" y1="0%" x2="100%" y2="100%">
      <stop offset="0%" stop-color="#74b9ff" />
      <stop offset="100%" stop-color="#0984e3" />
    </linearGradient>
  </defs>
  
  <!-- 背景 -->
  <rect x="0" y="0" width="400" height="400" fill="#2d3436" opacity="0.1" rx="10" ry="10" />
  
  <!-- 円グラフ -->
  <path d="M200,200 L200,80 A120,120 0 0,1 308,200 Z" fill="url(#gradient1)" />
  <path d="M200,200 L308,200 A120,120 0 0,1 260,308 Z" fill="url(#gradient2)" />
  <path d="M200,200 L260,308 A120,120 0 0,1 140,308 Z" fill="url(#gradient3)" />
  <path d="M200,200 L140,308 A120,120 0 0,1 92,200 Z" fill="url(#gradient4)" />
  <path d="M200,200 L92,200 A120,120 0 0,1 200,80 Z" fill="url(#gradient5)" />
  
  <!-- 中央の円 -->
  <circle cx="200" cy="200" r="40" fill="white" />
  <text x="200" y="195" font-family="Arial" font-size="16" fill="#2d3436" text-anchor="middle">NOVA</text>
  <text x="200" y="215" font-family="Arial" font-size="16" fill="#2d3436" text-anchor="middle">NVL</text>
  
  <!-- ラベル -->
  <text x="250" y="120" font-family="Arial" font-size="12" fill="#2d3436" text-anchor="middle">エコシステム開発</text>
  <text x="250" y="135" font-family="Arial" font-size="12" fill="#2d3436" text-anchor="middle">30%</text>
  
  <text x="300" y="230" font-family="Arial" font-size="12" fill="#2d3436" text-anchor="middle">コミュニティ</text>
  <text x="300" y="245" font-family="Arial" font-size="12" fill="#2d3436" text-anchor="middle">25%</text>
  
  <text x="220" y="300" font-family="Arial" font-size="12" fill="#2d3436" text-anchor="middle">チーム</text>
  <text x="220" y="315" font-family="Arial" font-size="12" fill="#2d3436" text-anchor="middle">15%</text>
  
  <text x="130" y="300" font-family="Arial" font-size="12" fill="#2d3436" text-anchor="middle">リザーブ</text>
  <text x="130" y="315" font-family="Arial" font-size="12" fill="#2d3436" text-anchor="middle">15%</text>
  
  <text x="120" y="180" font-family="Arial" font-size="12" fill="#2d3436" text-anchor="middle">初期投資家</text>
  <text x="120" y="195" font-family="Arial" font-size="12" fill="#2d3436" text-anchor="middle">15%</text>
  
  <!-- タイトル -->
  <text x="200" y="380" font-family="Arial" font-size="16" fill="#2d3436" text-anchor="middle">NOVA (NVL) トークン配分</text>
</svg>