<?xml version="1.0" encoding="UTF-8" standalone="no"?>
<svg width="500" height="400" viewBox="0 0 500 400" xmlns="http://www.w3.org/2000/svg">
  <defs>
    <linearGradient id="gradientPrimary" x1="0%" y1="0%" x2="100%" y2="100%">
      <stop offset="0%" stop-color="#6c5ce7" />
      <stop offset="100%" stop-color="#00cec9" />
    </linearGradient>
    <linearGradient id="gradientSecondary" x1="0%" y1="0%" x2="100%" y2="100%">
      <stop offset="0%" stop-color="#fd79a8" />
      <stop offset="100%" stop-color="#e84393" />
    </linearGradient>
    <filter id="glow" x="-20%" y="-20%" width="140%" height="140%">
      <feGaussianBlur stdDeviation="3" result="blur" />
      <feComposite in="SourceGraphic" in2="blur" operator="over" />
    </filter>
  </defs>
  
  <!-- 背景グリッド -->
  <g stroke="#2d3436" stroke-opacity="0.05" stroke-width="1">
    <g>
      <line x1="50" y1="0" x2="50" y2="400" />
      <line x1="100" y1="0" x2="100" y2="400" />
      <line x1="150" y1="0" x2="150" y2="400" />
      <line x1="200" y1="0" x2="200" y2="400" />
      <line x1="250" y1="0" x2="250" y2="400" />
      <line x1="300" y1="0" x2="300" y2="400" />
      <line x1="350" y1="0" x2="350" y2="400" />
      <line x1="400" y1="0" x2="400" y2="400" />
      <line x1="450" y1="0" x2="450" y2="400" />
    </g>
    <g>
      <line x1="0" y1="50" x2="500" y2="50" />
      <line x1="0" y1="100" x2="500" y2="100" />
      <line x1="0" y1="150" x2="500" y2="150" />
      <line x1="0" y1="200" x2="500" y2="200" />
      <line x1="0" y1="250" x2="500" y2="250" />
      <line x1="0" y1="300" x2="500" y2="300" />
      <line x1="0" y1="350" x2="500" y2="350" />
    </g>
  </g>
  
  <!-- 中央のAIコア -->
  <circle cx="250" cy="200" r="60" fill="url(#gradientPrimary)" filter="url(#glow)" />
  <text x="250" y="200" text-anchor="middle" dominant-baseline="middle" font-family="Arial" font-size="16" font-weight="bold" fill="white">AI Core</text>
  <text x="250" y="220" text-anchor="middle" dominant-baseline="middle" font-family="Arial" font-size="12" fill="white">データ分析・最適化</text>
  
  <!-- コミュニティノード -->
  <g>
    <!-- トークンホルダー -->
    <circle cx="120" cy="100" r="40" fill="rgba(108, 92, 231, 0.7)" filter="url(#glow)" />
    <text x="120" y="100" text-anchor="middle" dominant-baseline="middle" font-family="Arial" font-size="14" font-weight="bold" fill="white">トークン</text>
    <text x="120" y="120" text-anchor="middle" dominant-baseline="middle" font-family="Arial" font-size="12" fill="white">ホルダー</text>
    
    <!-- バリデータ -->
    <circle cx="380" cy="100" r="40" fill="rgba(0, 206, 201, 0.7)" filter="url(#glow)" />
    <text x="380" y="100" text-anchor="middle" dominant-baseline="middle" font-family="Arial" font-size="14" font-weight="bold" fill="white">バリデータ</text>
    <text x="380" y="120" text-anchor="middle" dominant-baseline="middle" font-family="Arial" font-size="12" fill="white">ノード</text>
    
    <!-- 開発者 -->
    <circle cx="120" cy="300" r="40" fill="rgba(253, 121, 168, 0.7)" filter="url(#glow)" />
    <text x="120" y="300" text-anchor="middle" dominant-baseline="middle" font-family="Arial" font-size="14" font-weight="bold" fill="white">開発者</text>
    <text x="120" y="320" text-anchor="middle" dominant-baseline="middle" font-family="Arial" font-size="12" fill="white">コミュニティ</text>
    
    <!-- 外部データソース -->
    <circle cx="380" cy="300" r="40" fill="rgba(232, 67, 147, 0.7)" filter="url(#glow)" />
    <text x="380" y="300" text-anchor="middle" dominant-baseline="middle" font-family="Arial" font-size="14" font-weight="bold" fill="white">外部データ</text>
    <text x="380" y="320" text-anchor="middle" dominant-baseline="middle" font-family="Arial" font-size="12" fill="white">ソース</text>
  </g>
  
  <!-- 接続線 -->
  <g>
    <line x1="153" y1="133" x2="207" y2="167" stroke="url(#gradientSecondary)" stroke-width="3" stroke-dasharray="5,5" />
    <line x1="347" y1="133" x2="293" y2="167" stroke="url(#gradientSecondary)" stroke-width="3" stroke-dasharray="5,5" />
    <line x1="153" y1="267" x2="207" y2="233" stroke="url(#gradientSecondary)" stroke-width="3" stroke-dasharray="5,5" />
    <line x1="347" y1="267" x2="293" y2="233" stroke="url(#gradientSecondary)" stroke-width="3" stroke-dasharray="5,5" />
    
    <!-- 双方向矢印 -->
    <polygon points="207,167 200,160 210,155" fill="url(#gradientSecondary)" />
    <polygon points="293,167 300,160 290,155" fill="url(#gradientSecondary)" />
    <polygon points="207,233 200,240 210,245" fill="url(#gradientSecondary)" />
    <polygon points="293,233 300,240 290,245" fill="url(#gradientSecondary)" />
  </g>
  
  <!-- 説明テキスト -->
  <g font-family="Arial" font-size="14" fill="#2d3436">
    <text x="50" y="30" font-weight="bold">AIサポート型DAO（AIDAO）ガバナンスモデル</text>
    <text x="50" y="380" font-style="italic">客観的データに基づく意思決定支援システム</text>
  </g>
  
  <!-- プロセスフロー -->
  <g>
    <path d="M 170,50 Q 250,20 330,50" fill="none" stroke="#6c5ce7" stroke-width="2" />
    <text x="250" y="30" text-anchor="middle" font-family="Arial" font-size="12" fill="#6c5ce7">提案提出</text>
    <polygon points="330,50 320,45 325,55" fill="#6c5ce7" />
    
    <path d="M 450,170 Q 480,200 450,230" fill="none" stroke="#00cec9" stroke-width="2" />
    <text x="470" y="200" text-anchor="middle" font-family="Arial" font-size="12" fill="#00cec9">データ分析</text>
    <polygon points="450,230 445,220 455,225" fill="#00cec9" />
    
    <path d="M 330,350 Q 250,380 170,350" fill="none" stroke="#fd79a8" stroke-width="2" />
    <text x="250" y="370" text-anchor="middle" font-family="Arial" font-size="12" fill="#fd79a8">実装・フィードバック</text>
    <polygon points="170,350 180,355 175,345" fill="#fd79a8" />
    
    <path d="M 50,230 Q 20,200 50,170" fill="none" stroke="#e84393" stroke-width="2" />
    <text x="30" y="200" text-anchor="middle" font-family="Arial" font-size="12" fill="#e84393">投票・検証</text>
    <polygon points="50,170 55,180 45,175" fill="#e84393" />
  </g>
  
  <!-- Quadratic Voting表現 -->
  <g transform="translate(430, 50)">
    <rect x="0" y="0" width="15" height="15" fill="#6c5ce7" opacity="0.7" />
    <rect x="20" y="0" width="15" height="15" fill="#6c5ce7" opacity="0.7" />
    <rect x="0" y="20" width="15" height="15" fill="#6c5ce7" opacity="0.7" />
    <rect x="20" y="20" width="15" height="15" fill="#6c5ce7" opacity="0.7" />
    <text x="-5" y="45" font-family="Arial" font-size="10" fill="#2d3436">Quadratic</text>
    <text x="0" y="55" font-family="Arial" font-size="10" fill="#2d3436">Voting</text>
  </g>
</svg>