<?xml version="1.0" encoding="UTF-8" standalone="no"?>
<svg width="200" height="200" viewBox="0 0 200 200" xmlns="http://www.w3.org/2000/svg">
  <defs>
    <linearGradient id="logoGradient" x1="0%" y1="0%" x2="100%" y2="100%">
      <stop offset="0%" stop-color="#6c5ce7" />
      <stop offset="100%" stop-color="#00cec9" />
    </linearGradient>
    <linearGradient id="textGradient" x1="0%" y1="0%" x2="100%" y2="0%">
      <stop offset="0%" stop-color="#ffffff" />
      <stop offset="100%" stop-color="#dfe6e9" />
    </linearGradient>
  </defs>
  
  <!-- 外側の円 -->
  <circle cx="100" cy="100" r="90" fill="none" stroke="url(#logoGradient)" stroke-width="4" />
  
  <!-- 内側の六角形 -->
  <polygon points="100,30 150,55 150,145 100,170 50,145 50,55" fill="none" stroke="url(#logoGradient)" stroke-width="3" />
  
  <!-- 中央の「U」の文字 -->
  <path d="M80,60 L80,120 Q100,140 120,120 L120,60" fill="none" stroke="url(#textGradient)" stroke-width="8" stroke-linecap="round" stroke-linejoin="round" />
  
  <!-- 中央の点 -->
  <circle cx="100" cy="100" r="5" fill="#fd79a8" />
  
  <!-- 接続線 -->
  <line x1="100" y1="100" x2="150" y2="55" stroke="#fd79a8" stroke-width="2" opacity="0.7" />
  <line x1="100" y1="100" x2="150" y2="145" stroke="#fd79a8" stroke-width="2" opacity="0.7" />
  <line x1="100" y1="100" x2="50" y2="145" stroke="#fd79a8" stroke-width="2" opacity="0.7" />
  <line x1="100" y1="100" x2="50" y2="55" stroke="#fd79a8" stroke-width="2" opacity="0.7" />
  <line x1="100" y1="100" x2="100" y2="30" stroke="#fd79a8" stroke-width="2" opacity="0.7" />
  <line x1="100" y1="100" x2="100" y2="170" stroke="#fd79a8" stroke-width="2" opacity="0.7" />
</svg>