<?xml version="1.0" encoding="UTF-8" standalone="no"?>
<svg width="500" height="400" viewBox="0 0 500 400" xmlns="http://www.w3.org/2000/svg">
  <defs>
    <linearGradient id="gradientPrimary" x1="0%" y1="0%" x2="100%" y2="100%">
      <stop offset="0%" stop-color="#6c5ce7" />
      <stop offset="100%" stop-color="#00cec9" />
    </linearGradient>
    <linearGradient id="gradientSecondary" x1="0%" y1="0%" x2="100%" y2="100%">
      <stop offset="0%" stop-color="#fd79a8" />
      <stop offset="100%" stop-color="#e84393" />
    </linearGradient>
    <filter id="glow" x="-20%" y="-20%" width="140%" height="140%">
      <feGaussianBlur stdDeviation="5" result="blur" />
      <feComposite in="SourceGraphic" in2="blur" operator="over" />
    </filter>
  </defs>
  
  <!-- 背景グリッド -->
  <g stroke="#2d3436" stroke-opacity="0.1" stroke-width="1">
    <g>
      <line x1="50" y1="0" x2="50" y2="400" />
      <line x1="100" y1="0" x2="100" y2="400" />
      <line x1="150" y1="0" x2="150" y2="400" />
      <line x1="200" y1="0" x2="200" y2="400" />
      <line x1="250" y1="0" x2="250" y2="400" />
      <line x1="300" y1="0" x2="300" y2="400" />
      <line x1="350" y1="0" x2="350" y2="400" />
      <line x1="400" y1="0" x2="400" y2="400" />
      <line x1="450" y1="0" x2="450" y2="400" />
    </g>
    <g>
      <line x1="0" y1="50" x2="500" y2="50" />
      <line x1="0" y1="100" x2="500" y2="100" />
      <line x1="0" y1="150" x2="500" y2="150" />
      <line x1="0" y1="200" x2="500" y2="200" />
      <line x1="0" y1="250" x2="500" y2="250" />
      <line x1="0" y1="300" x2="500" y2="300" />
      <line x1="0" y1="350" x2="500" y2="350" />
    </g>
  </g>
  
  <!-- DAG構造 -->
  <g>
    <!-- ノード -->
    <circle cx="100" cy="100" r="20" fill="url(#gradientPrimary)" filter="url(#glow)" />
    <circle cx="200" cy="80" r="20" fill="url(#gradientPrimary)" filter="url(#glow)" />
    <circle cx="300" cy="100" r="20" fill="url(#gradientPrimary)" filter="url(#glow)" />
    <circle cx="400" cy="80" r="20" fill="url(#gradientPrimary)" filter="url(#glow)" />
    
    <circle cx="150" cy="180" r="20" fill="url(#gradientPrimary)" filter="url(#glow)" />
    <circle cx="250" cy="200" r="20" fill="url(#gradientPrimary)" filter="url(#glow)" />
    <circle cx="350" cy="180" r="20" fill="url(#gradientPrimary)" filter="url(#glow)" />
    
    <circle cx="200" cy="280" r="20" fill="url(#gradientPrimary)" filter="url(#glow)" />
    <circle cx="300" cy="300" r="20" fill="url(#gradientPrimary)" filter="url(#glow)" />
    
    <circle cx="250" cy="350" r="20" fill="url(#gradientPrimary)" filter="url(#glow)" />
    
    <!-- エッジ -->
    <line x1="100" y1="100" x2="200" y2="80" stroke="url(#gradientSecondary)" stroke-width="3" />
    <line x1="200" y1="80" x2="300" y2="100" stroke="url(#gradientSecondary)" stroke-width="3" />
    <line x1="300" y1="100" x2="400" y2="80" stroke="url(#gradientSecondary)" stroke-width="3" />
    
    <line x1="100" y1="100" x2="150" y2="180" stroke="url(#gradientSecondary)" stroke-width="3" />
    <line x1="200" y1="80" x2="150" y2="180" stroke="url(#gradientSecondary)" stroke-width="3" />
    <line x1="200" y1="80" x2="250" y2="200" stroke="url(#gradientSecondary)" stroke-width="3" />
    <line x1="300" y1="100" x2="250" y2="200" stroke="url(#gradientSecondary)" stroke-width="3" />
    <line x1="300" y1="100" x2="350" y2="180" stroke="url(#gradientSecondary)" stroke-width="3" />
    <line x1="400" y1="80" x2="350" y2="180" stroke="url(#gradientSecondary)" stroke-width="3" />
    
    <line x1="150" y1="180" x2="200" y2="280" stroke="url(#gradientSecondary)" stroke-width="3" />
    <line x1="250" y1="200" x2="200" y2="280" stroke="url(#gradientSecondary)" stroke-width="3" />
    <line x1="250" y1="200" x2="300" y2="300" stroke="url(#gradientSecondary)" stroke-width="3" />
    <line x1="350" y1="180" x2="300" y2="300" stroke="url(#gradientSecondary)" stroke-width="3" />
    
    <line x1="200" y1="280" x2="250" y2="350" stroke="url(#gradientSecondary)" stroke-width="3" />
    <line x1="300" y1="300" x2="250" y2="350" stroke="url(#gradientSecondary)" stroke-width="3" />
  </g>
  
  <!-- ラベル -->
  <g font-family="Arial" font-size="12" fill="white">
    <text x="100" y="100" text-anchor="middle" dominant-baseline="middle">B1</text>
    <text x="200" y="80" text-anchor="middle" dominant-baseline="middle">B2</text>
    <text x="300" y="100" text-anchor="middle" dominant-baseline="middle">B3</text>
    <text x="400" y="80" text-anchor="middle" dominant-baseline="middle">B4</text>
    
    <text x="150" y="180" text-anchor="middle" dominant-baseline="middle">B5</text>
    <text x="250" y="200" text-anchor="middle" dominant-baseline="middle">B6</text>
    <text x="350" y="180" text-anchor="middle" dominant-baseline="middle">B7</text>
    
    <text x="200" y="280" text-anchor="middle" dominant-baseline="middle">B8</text>
    <text x="300" y="300" text-anchor="middle" dominant-baseline="middle">B9</text>
    
    <text x="250" y="350" text-anchor="middle" dominant-baseline="middle">B10</text>
  </g>
  
  <!-- 説明テキスト -->
  <g font-family="Arial" font-size="14" fill="#2d3436">
    <text x="50" y="30" font-weight="bold">Proof of Ultima (PoU) コンセンサスモデル</text>
    <text x="50" y="380" font-style="italic">DAG構造によるブロック並列処理とAI最適化</text>
  </g>
  
  <!-- 凡例 -->
  <g transform="translate(400, 350)">
    <circle cx="0" cy="0" r="10" fill="url(#gradientPrimary)" />
    <text x="15" y="5" font-family="Arial" font-size="12" fill="#2d3436">ブロック</text>
    
    <line x1="-20" y1="25" x2="10" y2="25" stroke="url(#gradientSecondary)" stroke-width="3" />
    <text x="15" y="30" font-family="Arial" font-size="12" fill="#2d3436">検証パス</text>
  </g>
</svg>